<svg width="76" height="76" viewBox="0 0 76 76" fill="none" xmlns="http://www.w3.org/2000/svg">
<g id="mongodb 1" clip-path="url(#clip0_2_7107)">
<path id="Vector" d="M38 75.6027C58.7107 75.6027 75.5 58.8134 75.5 38.1027C75.5 17.392 58.7107 0.602692 38 0.602692C17.2893 0.602692 0.5 17.392 0.5 38.1027C0.5 58.8134 17.2893 75.6027 38 75.6027Z" fill="#13AA52"/>
<path id="Vector_2" d="M48.0239 33.5207C45.6552 23.0668 40.0573 19.6295 39.4545 18.3163C38.7954 17.3898 38.1274 15.7419 38.1274 15.7419C38.1164 15.714 38.0988 15.6649 38.0783 15.6173C38.0102 16.5439 37.9751 16.9013 37.0991 17.8358C35.7426 18.8964 28.7832 24.736 28.217 36.6129C27.6889 47.6901 36.2187 54.2907 37.3723 55.1322L37.5034 55.2253V55.2172C37.5107 55.2729 37.8696 57.8539 38.1215 60.5888H39.0253C39.2374 58.6556 39.5553 56.7355 39.9775 54.8371L40.0507 54.7895C40.5667 54.4195 41.0587 54.0171 41.5236 53.5846L41.5764 53.537C44.0285 51.2716 48.437 46.0319 48.3938 37.6779C48.3846 36.2843 48.2609 34.8939 48.0239 33.5207ZM38.0256 48.8781C38.0256 48.8781 38.0256 33.342 38.5383 33.3449C38.9382 33.3449 39.456 53.3847 39.456 53.3847C38.7441 53.299 38.0256 50.0866 38.0256 48.8781Z" fill="white"/>
</g>
<defs>
<clipPath id="clip0_2_7107">
<rect width="75" height="75" fill="white" transform="translate(0.5 0.602692)"/>
</clipPath>
</defs>
</svg>
