<svg width="86" height="86" viewBox="0 0 86 86" fill="none" xmlns="http://www.w3.org/2000/svg">
<g id="Group 33935">
<rect id="image 1" x="0.897339" y="0.602692" width="85.054" height="85.054" rx="42.527" fill="#FF8CA6"/>
<path id="Vector" fill-rule="evenodd" clip-rule="evenodd" d="M48.3379 18.6027C47.9764 18.6027 47.6406 18.6805 47.3307 18.7842C47.9893 19.2249 48.3508 19.8083 48.5316 20.4694C48.5446 20.5602 48.5703 20.625 48.5833 20.7157C48.5962 20.7935 48.6091 20.8713 48.6091 20.9491C48.6608 22.0898 48.3121 22.2324 48.0668 22.9065C47.6923 23.7751 47.7956 24.7085 48.2475 25.4603C48.2863 25.5511 48.3379 25.6548 48.4025 25.7455C47.9118 22.4658 50.6364 21.9732 51.1399 20.9491C51.1787 20.0546 50.4427 19.4583 49.8616 19.0434C49.3064 18.7064 48.8028 18.6027 48.3379 18.6027ZM52.4441 19.3416C52.3924 19.6398 52.4312 19.562 52.4183 19.7175C52.4054 19.8213 52.4054 19.9509 52.3925 20.0546C52.3667 20.1583 52.3408 20.262 52.3021 20.3657C52.2763 20.4694 52.2376 20.5731 52.1988 20.6768C52.1471 20.7805 52.1084 20.8713 52.0568 20.975C52.018 21.0269 51.9922 21.0787 51.9535 21.1306C51.9277 21.1694 51.9018 21.2083 51.876 21.2472C51.8114 21.338 51.7469 21.4287 51.6823 21.5065C51.6048 21.5843 51.5403 21.675 51.4499 21.7398V21.7528C51.3724 21.8176 51.2949 21.8954 51.2045 21.9602C50.9334 22.1676 50.6235 22.3232 50.3394 22.5177C50.249 22.5825 50.1586 22.6343 50.0812 22.7121C49.9908 22.7769 49.9133 22.8417 49.8358 22.9195C49.7454 22.9973 49.6809 23.0751 49.6034 23.1658C49.5388 23.2436 49.4613 23.3344 49.4097 23.4251C49.3451 23.5158 49.2806 23.6066 49.2289 23.6973C49.1773 23.801 49.1385 23.8918 49.0869 23.9955C49.0481 24.0992 49.0094 24.1899 48.9836 24.2936C48.9448 24.4103 48.919 24.514 48.8932 24.6177C48.8803 24.6696 48.8803 24.7344 48.8674 24.7863C48.8544 24.8381 48.8544 24.89 48.8416 24.9418C48.8416 25.0455 48.8287 25.1622 48.8287 25.2659C48.8287 25.3437 48.8287 25.4215 48.8416 25.4992C48.8416 25.603 48.8545 25.7067 48.8803 25.8233C48.8933 25.927 48.9191 26.0307 48.9449 26.1345C48.9836 26.2382 49.0095 26.3419 49.0482 26.4456C49.074 26.5104 49.1127 26.5752 49.1386 26.6271L46.1687 25.4733C45.6651 25.3307 45.1744 25.2011 44.6708 25.0844C44.3997 25.0196 44.1285 24.9548 43.8573 24.89C43.0826 24.7344 42.2949 24.6177 41.5072 24.54C41.4814 24.54 41.4685 24.527 41.4427 24.527C40.6679 24.4492 39.9061 24.4103 39.1313 24.4103C38.5632 24.4103 37.995 24.4362 37.4398 24.4751C36.6521 24.527 35.8644 24.6307 35.0768 24.7603C34.8831 24.7862 34.6894 24.8251 34.4957 24.864C34.0954 24.9418 33.708 25.0325 33.3336 25.1233C33.1399 25.1752 32.9462 25.227 32.7525 25.2789C32.5588 25.3566 32.3781 25.4474 32.1973 25.5252C32.0552 25.59 31.9132 25.6548 31.7712 25.7196C31.7454 25.7326 31.7195 25.7326 31.7066 25.7455C31.5775 25.8103 31.4613 25.8622 31.345 25.927C31.3063 25.94 31.2805 25.9529 31.2547 25.9659C31.1126 26.0307 30.9706 26.1085 30.8544 26.1733C30.764 26.2122 30.6736 26.2641 30.5961 26.3029C30.5574 26.3289 30.5057 26.3548 30.4799 26.3678C30.3637 26.4326 30.2475 26.4974 30.1442 26.5622C30.028 26.627 29.9247 26.6918 29.8343 26.7567C29.7439 26.8215 29.6535 26.8733 29.576 26.9381C29.5631 26.9511 29.5502 26.9511 29.5373 26.9641C29.4598 27.0159 29.3694 27.0807 29.2919 27.1455C29.2919 27.1455 29.279 27.1585 29.2661 27.1715C29.2016 27.2233 29.137 27.2752 29.0724 27.327C29.0466 27.34 29.0208 27.3659 28.995 27.3789C28.9304 27.4308 28.8658 27.4956 28.8013 27.5474C28.7884 27.5733 28.7626 27.5863 28.7496 27.5993C28.6721 27.6771 28.5947 27.7419 28.5172 27.8197C28.5043 27.8197 28.5043 27.8326 28.4914 27.8456C28.4139 27.9104 28.3364 27.9882 28.259 28.0659C28.246 28.0789 28.246 28.0919 28.2332 28.0919C28.1686 28.1567 28.104 28.2215 28.0395 28.2993C28.0137 28.3252 27.9749 28.3511 27.9491 28.377C27.8845 28.4548 27.807 28.5326 27.7296 28.6104C27.7166 28.6363 27.6908 28.6493 27.6779 28.6752C27.5746 28.7789 27.4842 28.8826 27.3809 28.9863C27.368 28.9993 27.3551 29.0122 27.3422 29.0252C27.1356 29.2456 26.916 29.466 26.6836 29.6604C26.4512 29.8678 26.2059 30.0623 25.9605 30.2308C25.7023 30.4123 25.4569 30.5679 25.1858 30.7234C24.9275 30.866 24.6563 30.9957 24.3723 31.1123C24.1011 31.229 23.817 31.3327 23.533 31.4234C22.9906 31.5401 22.4354 31.7605 21.9576 31.7994C21.8543 31.7994 21.7381 31.8253 21.6348 31.8383C21.5186 31.8642 21.4153 31.8902 21.312 31.9161C21.2087 31.9549 21.1054 31.9938 21.0021 32.0327C20.8988 32.0716 20.7955 32.1235 20.6922 32.1753C20.6018 32.2401 20.4985 32.292 20.4081 32.3568C20.3177 32.4216 20.2273 32.4994 20.1499 32.5772C20.0595 32.642 19.9691 32.7328 19.8916 32.8105C19.8141 32.9013 19.7367 32.9791 19.6721 33.0698C19.6075 33.1735 19.5301 33.2643 19.4784 33.368C19.4138 33.4587 19.3493 33.5624 19.2976 33.6661C19.246 33.7828 19.1943 33.8865 19.1556 34.0032C19.1169 34.1069 19.0781 34.2235 19.0394 34.3402C19.0136 34.4439 18.9877 34.5476 18.9748 34.6513C18.9748 34.6643 18.9619 34.6772 18.9619 34.6902C18.9361 34.8069 18.9361 34.9625 18.9231 35.0403C18.9102 35.131 18.8973 35.2088 18.8973 35.2995C18.8973 35.3514 18.8973 35.4162 18.9103 35.468C18.9232 35.5588 18.9361 35.6366 18.9619 35.7144C18.9877 35.7921 19.0136 35.8699 19.0523 35.9477V35.9607C19.0911 36.0385 19.1427 36.1162 19.1944 36.194C19.246 36.2718 19.2977 36.3496 19.3622 36.4274C19.4268 36.4922 19.5043 36.5699 19.5817 36.6348C19.6592 36.7125 19.7367 36.7774 19.8271 36.8422C20.137 37.1144 20.2145 37.2052 20.6148 37.4126C20.6793 37.4515 20.7439 37.4774 20.8214 37.5163C20.8343 37.5163 20.8472 37.5293 20.8601 37.5293C20.8601 37.5552 20.8601 37.5682 20.873 37.5941C20.886 37.6978 20.9118 37.8015 20.9376 37.9052C20.9634 38.0219 21.0022 38.1256 21.0409 38.2163C21.0796 38.2941 21.1055 38.3719 21.1442 38.4497C21.1571 38.4756 21.17 38.5015 21.1829 38.5145C21.2346 38.6182 21.2862 38.7089 21.3379 38.7997C21.4024 38.8904 21.467 38.9812 21.5316 39.0719C21.5961 39.1497 21.6736 39.2404 21.7511 39.3182C21.8286 39.396 21.906 39.4608 21.9964 39.5386C21.9964 39.5386 22.0094 39.5516 22.0222 39.5516C22.0997 39.6164 22.1772 39.6812 22.2547 39.7331C22.345 39.7979 22.4354 39.8497 22.5387 39.9016C22.6291 39.9535 22.7324 40.0053 22.8357 40.0442C22.9132 40.0831 23.0036 40.109 23.094 40.1349C23.1069 40.1479 23.1198 40.1479 23.1456 40.1609C23.1973 40.1739 23.2619 40.1868 23.3135 40.1997C23.2748 40.8998 23.2618 41.5609 23.3652 41.7942C23.4814 42.0535 24.0495 41.2627 24.6177 40.3553C24.5402 41.2498 24.4886 42.2998 24.6177 42.6109C24.7597 42.935 25.5345 41.9239 26.2059 40.809C35.361 38.683 43.7154 45.0351 44.5934 54.0058C44.4256 52.6057 42.7082 51.8279 41.9206 52.0224C41.5332 52.9817 40.8746 54.2132 39.8158 54.978C39.9062 54.1224 39.8675 53.2409 39.6867 52.3853C39.4026 53.578 38.8474 54.6928 38.0855 55.6521C36.8588 55.7429 35.6321 55.1466 34.9865 54.2521C34.9348 54.2132 34.9219 54.1354 34.8832 54.0836C34.8444 53.9928 34.8057 53.9021 34.7799 53.8113C34.7411 53.7206 34.7153 53.6298 34.7024 53.5391C34.6895 53.4483 34.6895 53.3576 34.6895 53.2539C34.6895 53.1891 34.6895 53.1243 34.6895 53.0595C34.7024 52.9687 34.7282 52.878 34.754 52.7872C34.7798 52.6965 34.8057 52.6057 34.8444 52.515C34.8961 52.4242 34.9348 52.3335 34.9994 52.2428C35.2189 51.6205 35.2189 51.1149 34.8186 50.8168C34.7411 50.7649 34.6637 50.726 34.5733 50.6871C34.5216 50.6742 34.4571 50.6483 34.4054 50.6353C34.3667 50.6223 34.3408 50.6094 34.3021 50.5964C34.2117 50.5705 34.1213 50.5445 34.0309 50.5316C33.9405 50.5057 33.8502 50.4927 33.7598 50.4927C33.6694 50.4797 33.5661 50.4668 33.4757 50.4668C33.4111 50.4668 33.3466 50.4797 33.282 50.4797C33.1787 50.4797 33.0883 50.4927 32.9979 50.5186C32.9075 50.5316 32.8172 50.5445 32.7268 50.5705C32.6364 50.5964 32.546 50.6224 32.4556 50.6613C32.3652 50.7001 32.2877 50.739 32.1973 50.7779C32.1199 50.8168 32.0424 50.8687 31.952 50.9076C28.9434 52.878 30.7382 57.493 32.7913 58.8282C32.0166 58.9708 31.2289 59.1393 31.0094 59.3078C30.9965 59.3208 30.9836 59.3338 30.9836 59.3338C31.5388 59.6708 32.1199 59.956 32.7268 60.2023C33.5532 60.4745 34.4312 60.7208 34.8186 60.8245V60.8375C35.8904 61.0579 36.975 61.1357 38.0726 61.0709C43.7929 60.669 48.4801 56.3003 49.3324 50.5446C49.3582 50.6613 49.384 50.765 49.4098 50.8816C49.4486 51.115 49.5002 51.3613 49.526 51.6076V51.6206C49.5519 51.7372 49.5648 51.8539 49.5777 51.9576V52.0095C49.5907 52.1262 49.6035 52.2428 49.6035 52.3465C49.6165 52.4891 49.6293 52.6317 49.6293 52.7743V52.9818C49.6293 53.0466 49.6423 53.1243 49.6423 53.1892C49.6423 53.267 49.6293 53.3447 49.6293 53.4225V53.604C49.6293 53.6947 49.6164 53.7725 49.6164 53.8633C49.6164 53.9151 49.6164 53.967 49.6035 54.0318C49.6035 54.1225 49.5905 54.2133 49.5905 54.317C49.5776 54.3559 49.5776 54.3948 49.5776 54.4337C49.5647 54.5374 49.5518 54.6281 49.5388 54.7318C49.5388 54.7707 49.5388 54.8096 49.5259 54.8485C49.513 54.9781 49.4872 55.0948 49.4742 55.2244V55.2374V55.2504C49.4484 55.3671 49.4226 55.4967 49.3968 55.6134V55.6523C49.371 55.7689 49.3451 55.8856 49.3193 56.0023C49.3193 56.0153 49.3064 56.0412 49.3064 56.0541C49.2806 56.1708 49.2547 56.2875 49.216 56.4042V56.4431C49.1772 56.5727 49.1385 56.6894 49.1127 56.806C49.0997 56.819 49.0997 56.8319 49.0997 56.8319C49.061 56.9616 49.0223 57.0912 48.9835 57.2208C48.9319 57.3505 48.8931 57.4671 48.8415 57.5968C48.7898 57.7264 48.7511 57.856 48.6995 57.9727C48.6478 58.1024 48.5962 58.219 48.5445 58.3487H48.5316C48.4799 58.4653 48.4283 58.595 48.3637 58.7116C48.3508 58.7505 48.3379 58.7765 48.325 58.8024C48.312 58.8154 48.312 58.8283 48.2991 58.8413C47.4598 60.5395 46.2202 62.0303 44.6707 63.197C44.5674 63.2618 44.4641 63.3396 44.3608 63.4173C44.335 63.4433 44.2962 63.4562 44.2704 63.4822C44.18 63.547 44.0896 63.6118 43.9864 63.6766L44.0251 63.7544H44.038C44.2188 63.7285 44.3996 63.7025 44.5803 63.6766H44.5933C44.929 63.6248 45.2647 63.5599 45.6005 63.4951C45.6908 63.4821 45.7942 63.4562 45.8845 63.4303C45.9491 63.4173 46.0007 63.4044 46.0653 63.3914C46.1557 63.3784 46.2461 63.3525 46.3365 63.3395C46.4139 63.3136 46.4914 63.3007 46.5689 63.2747C47.8602 62.9636 49.1127 62.5358 50.3135 62.0302C48.2604 64.8433 45.5101 67.1119 42.2948 68.6027C43.7798 68.499 45.2647 68.2527 46.698 67.8379C51.9018 66.2952 56.2792 62.7821 58.9004 58.0505C58.371 61.045 57.183 63.897 55.4269 66.386C56.6794 65.5563 57.8287 64.597 58.8746 63.5081C61.767 60.4746 63.6652 56.6245 64.3108 52.4892C64.7498 54.5374 64.8789 56.6504 64.6852 58.7375C74.0081 45.6834 65.46 32.1496 61.8832 28.5846C61.8703 28.5587 61.8574 28.5457 61.8574 28.5198C61.8445 28.5328 61.8445 28.5328 61.8445 28.5457C61.8445 28.5327 61.8445 28.5327 61.8315 28.5198C61.8315 28.6754 61.8186 28.8309 61.8057 28.9865C61.767 29.2847 61.7283 29.5699 61.6766 29.8551C61.612 30.1402 61.5346 30.4254 61.4571 30.7106C61.3667 30.9829 61.2634 31.2681 61.1472 31.5403C61.031 31.7996 60.9018 32.0718 60.7598 32.3311C60.6178 32.5774 60.4628 32.8366 60.295 33.07C60.1271 33.3163 59.9463 33.5496 59.7655 33.77C59.5718 34.0033 59.3653 34.2108 59.1586 34.4182C59.0295 34.5348 58.9133 34.6385 58.7842 34.7423C58.6809 34.833 58.5905 34.9108 58.4872 35.0015C58.2548 35.183 58.0223 35.3515 57.7641 35.5071C57.5188 35.6627 57.2605 35.8182 57.0023 35.9479C56.7311 36.0775 56.4599 36.1942 56.1888 36.3108C55.9176 36.4145 55.6335 36.5053 55.3494 36.5831C55.0654 36.6608 54.7684 36.7257 54.4843 36.7775C54.1873 36.8294 53.8903 36.8553 53.6062 36.8812C53.3996 36.8942 53.193 36.9071 52.9864 36.9071C52.6894 36.9071 52.3925 36.8812 52.1084 36.8553C51.8114 36.8293 51.5144 36.7904 51.2303 36.7256C50.9333 36.6737 50.6493 36.596 50.3652 36.5052H50.3523C50.6363 36.4793 50.9204 36.4534 51.2045 36.4015C51.5015 36.3497 51.7855 36.2849 52.0696 36.2071C52.3537 36.1293 52.6378 36.0385 52.9089 35.9348C53.193 35.8311 53.4642 35.7015 53.7224 35.5719C53.9936 35.4422 54.2389 35.2996 54.4972 35.1441C54.7425 34.9756 54.9879 34.807 55.2203 34.6255C55.4527 34.4441 55.6722 34.2496 55.8788 34.0422C56.0984 33.8477 56.292 33.6274 56.4857 33.407C56.6794 33.1736 56.8602 32.9403 57.0281 32.707C57.0539 32.6681 57.0797 32.6162 57.1055 32.5773C57.2347 32.3699 57.3638 32.1625 57.48 31.9551C57.622 31.6958 57.7512 31.4365 57.8674 31.1643C57.9836 30.8921 58.0869 30.6198 58.1773 30.3347C58.2677 30.0624 58.3322 29.7772 58.3968 29.492C58.4485 29.1939 58.5001 28.9087 58.5259 28.6235C58.5517 28.3253 58.5776 28.0272 58.5776 27.742C58.5776 27.5346 58.5646 27.3271 58.5518 27.1197C58.526 26.8216 58.4872 26.5364 58.4485 26.2512C58.3968 25.953 58.3323 25.6678 58.2548 25.3826C58.1644 25.1104 58.074 24.8252 57.9707 24.553C57.8674 24.2807 57.7383 24.0085 57.6092 23.7492C57.4671 23.49 57.3251 23.2307 57.1701 22.9844C57.0023 22.7381 56.8344 22.5048 56.6536 22.2714C56.4599 22.051 56.2663 21.8307 56.0597 21.6103C55.9564 21.5066 55.8401 21.3899 55.7239 21.2862C55.1429 20.8325 54.536 20.4047 53.9291 20.0158C53.8387 19.9639 53.7612 19.925 53.6708 19.8861C53.2447 19.6139 52.8444 19.4712 52.4441 19.3416Z" fill="#E0234E"/>
</g>
</svg>
